HIERARCHY
ROOT Pelvis
{
	OFFSET 0.000000 0.000000 0.000000
	CHANNELS 6 Xposition Yposition Zposition Zrotation Yrotation Xrotation 
	JOINT Left_hip
	{
		OFFSET 0.069463 -0.088608 -0.009542
		CHANNELS 3 Zrotation Yrotation Xrotation
		JOINT Left_knee
		{
			OFFSET 0.030639 -0.359740 -0.005288
			CHANNELS 3 Zrotation Yrotation Xrotation
			JOINT Left_ankle
			{
				OFFSET -0.011068 -0.376034 -0.042462
				CHANNELS 3 Zrotation Yrotation Xrotation
				JOINT Left_foot
				{
					OFFSET 0.023192 -0.053321 0.111332
					CHANNELS 3 Zrotation Yrotation Xrotation
					End Site
					{
						OFFSET 0.000000 0.000000 0.000000
					}
				}
			}
		}
	}
	JOINT Right_hip
	{
		OFFSET -0.067438 -0.088025 -0.006263
		CHANNELS 3 Zrotation Yrotation Xrotation
		JOINT Right_knee
		{
			OFFSET -0.035962 -0.366229 -0.008063
			CHANNELS 3 Zrotation Yrotation Xrotation
			JOINT Right_ankle
			{
				OFFSET 0.013608 -0.375719 -0.040481
				CHANNELS 3 Zrotation Yrotation Xrotation
				JOINT Right_foot
				{
					OFFSET -0.021034 -0.045527 0.114617
					CHANNELS 3 Zrotation Yrotation Xrotation
					End Site
					{
						OFFSET 0.000000 0.000000 0.000000
					}
				}
			}
		}
	}
	JOINT Spine1
	{
		OFFSET -0.002610 0.101823 -0.019986
		CHANNELS 3 Zrotation Yrotation Xrotation
		JOINT Spine2
		{
			OFFSET 0.004114 0.128714 -0.000938
			CHANNELS 3 Zrotation Yrotation Xrotation
			JOINT Spine3
			{
				OFFSET 0.002191 0.048470 0.027684
				CHANNELS 3 Zrotation Yrotation Xrotation
				JOINT Neck
				{
					OFFSET -0.002856 0.198873 -0.044022
					CHANNELS 3 Zrotation Yrotation Xrotation
					JOINT Head
					{
						OFFSET 0.002981 0.062960 0.049860
						CHANNELS 3 Zrotation Yrotation Xrotation
						End Site
						{
							OFFSET 0.000000 0.000000 0.000000
						}
					}
				}
				JOINT Left_collar
				{
					OFFSET 0.073708 0.112550 -0.033440
					CHANNELS 3 Zrotation Yrotation Xrotation
					JOINT Left_shoulder
					{
						OFFSET 0.083291 0.030786 -0.008013
						CHANNELS 3 Zrotation Yrotation Xrotation
						JOINT Left_elbow
						{
							OFFSET 0.245601 -0.011792 -0.027873
							CHANNELS 3 Zrotation Yrotation Xrotation
							JOINT Left_wrist
							{
								OFFSET 0.232258 0.008622 -0.000487
								CHANNELS 3 Zrotation Yrotation Xrotation
								JOINT Left_palm
								{
									OFFSET 0.077300 -0.009457 -0.012851
									CHANNELS 3 Zrotation Yrotation Xrotation
									End Site
									{
										OFFSET 0.000000 0.000000 0.000000
									}
								}
							}
						}
					}
				}
				JOINT Right_collar
				{
					OFFSET -0.075339 0.110574 -0.037874
					CHANNELS 3 Zrotation Yrotation Xrotation
					JOINT Right_shoulder
					{
						OFFSET -0.086522 0.031207 -0.009986
						CHANNELS 3 Zrotation Yrotation Xrotation
						JOINT Right_elbow
						{
							OFFSET -0.237313 -0.011478 -0.019859
							CHANNELS 3 Zrotation Yrotation Xrotation
							JOINT Right_wrist
							{
								OFFSET -0.237599 0.007976 -0.003742
								CHANNELS 3 Zrotation Yrotation Xrotation
								JOINT Right_palm
								{
									OFFSET -0.076920 -0.006943 -0.009920
									CHANNELS 3 Zrotation Yrotation Xrotation
									End Site
									{
										OFFSET 0.000000 0.000000 0.000000
									}
								}
							}
						}
					}
				}
			}
		}
	}
}
MOTION
Frames: 6
Frame Time: 0.100000
-1.279619 0.138186 -0.919991 1.837480 -26.829732 171.755248 1.038599 7.554918 32.089133 2.874480 -19.946101 -6.228057 1.695292 6.805868 -7.852913 -8.852592 6.684592 -5.828110 -0.334857 -1.631009 -7.784658 -2.456285 -8.567636 24.115724 1.773282 -9.297231 -1.222569 7.123152 -3.075255 -0.642743 0.979327 -6.567980 18.373795 1.734364 -3.742337 4.115774 2.366941 -5.658232 0.635859 -2.467226 -10.043860 5.743070 2.204740 -8.012983 -5.252630 -22.620411 -2.864835 3.700626 -57.639804 -20.956779 5.706556 9.743985 -13.420779 -3.431256 4.504713 -2.048411 -12.533483 1.636504 -2.015207 2.017488 23.754531 0.654381 -0.143053 61.849598 -3.475361 10.589274 -12.757009 14.981650 -7.700916 -1.998231 -0.849521 -4.133112 2.993208 6.998761 1.864447 
-1.256379 0.158125 -0.988915 0.246875 -31.290263 173.881474 3.558918 7.538850 35.155252 2.290791 -22.297479 -5.372501 0.603290 4.398853 -10.815702 -11.508183 5.613005 -2.545671 0.441861 -1.961299 -1.956615 0.028505 -6.778567 -9.200558 3.210414 -3.339150 -1.843827 7.300048 -5.921109 5.267331 0.987412 -5.480576 17.515191 0.803812 -4.774408 5.031316 2.611454 -5.392747 -0.034153 -3.025155 -11.362411 6.209871 5.680589 -9.891880 -8.534880 -22.670888 -4.218739 3.593438 -57.368279 -21.805680 6.623360 9.569136 -11.589109 -3.346656 3.608468 -3.649367 -12.715941 0.927651 -1.902528 4.233192 23.767246 0.374767 1.031660 62.811783 -5.574550 8.715903 -9.836241 10.361130 -5.627883 -0.676051 -0.796046 -7.077845 5.113377 7.798949 1.548439 
-1.233299 0.180422 -1.076337 -0.911110 -36.741638 175.605713 6.037418 6.081661 37.369765 2.867264 -25.435041 -2.810724 -0.963693 4.437708 -9.361251 -10.940371 3.635732 -3.709036 1.299457 -1.738515 -2.151123 0.320071 -6.879484 0.244129 0.435743 -2.589855 -1.256810 11.201974 -8.317584 4.936186 1.079434 -6.193140 16.039627 1.116572 -4.397918 4.967462 2.599717 -5.575099 -0.898710 -3.507135 -12.555296 6.237746 5.099649 -10.030808 -8.938031 -24.480151 -2.976769 4.173358 -57.331058 -19.935984 7.343807 8.891140 -11.118809 -0.838033 2.226913 -4.592817 -12.205094 1.395787 -1.543153 3.533683 25.043477 -0.289735 1.653202 60.505510 -7.059999 8.239498 -8.638914 7.360285 -3.332590 0.924320 -0.648046 -6.488227 3.951794 7.148523 2.517773 
-1.202637 0.188252 -1.190024 -0.770241 -41.965342 176.612503 9.814291 3.428647 34.454961 1.050051 -27.417401 8.003204 -8.436814 3.296267 0.428354 -5.118966 1.039937 -9.058609 3.464418 -2.446799 4.418781 1.606869 -4.563044 -2.015311 -3.146110 -4.003787 0.445571 11.843770 -9.717010 5.045409 1.537542 -5.811296 10.870409 1.942161 -5.200881 5.533434 2.723992 -6.066249 -1.242769 -4.924263 -13.095653 7.734102 3.038875 -9.741659 -6.426930 -25.192337 0.875348 5.167908 -58.450375 -15.323184 8.752927 7.110856 -11.333046 4.148682 1.071116 -4.640462 -12.933804 -0.232523 -1.547724 0.751847 25.758663 -2.492577 1.074809 58.024186 -6.673572 8.124052 -8.757814 7.559894 -3.086007 0.199342 -0.567951 -7.856927 5.055444 6.286215 2.382812 
-1.179330 0.204804 -1.281786 0.361656 -43.412594 174.535462 12.037799 2.486092 22.955254 -4.363492 -20.862687 35.028515 -16.819392 5.869571 17.032229 0.823387 -0.213910 -18.429380 6.480410 -4.895137 12.753874 2.616943 -2.508779 -3.569221 -9.258374 -3.752386 -2.957098 13.330082 -11.653196 4.464058 2.803561 -3.684373 9.643262 2.263254 -5.784584 5.400522 2.615406 -5.405445 -0.828978 -7.749281 -14.869720 8.421326 1.744922 -10.822252 -3.922086 -24.118223 3.044331 5.443423 -59.801477 -10.284348 9.468504 5.585972 -12.139126 8.268908 0.523878 -3.775794 -13.839364 -2.032095 -1.039460 -0.983357 25.071228 -1.350437 0.620631 57.425727 -3.410816 8.006004 -9.426715 10.696703 -3.014275 -1.772067 -1.134780 -9.837428 5.861734 5.358617 2.363634 
-1.157742 0.225120 -1.349911 1.069794 -41.935192 170.186284 10.421065 1.921770 10.765762 -3.385659 -11.066240 58.555122 -12.793523 10.032788 17.965692 -0.876573 2.196773 -18.947161 7.963393 -8.067278 25.045738 1.817850 1.338299 -8.892736 -12.624984 -2.903522 -3.867382 16.583973 -12.940282 2.904013 3.846445 0.187579 12.929967 2.425013 -5.738256 6.231553 2.716111 -3.637119 0.380808 -8.830850 -17.579991 8.136685 0.620093 -11.964476 -3.059616 -24.665621 2.845439 4.732254 -60.286871 -8.005939 7.704991 5.731627 -11.896776 7.890305 0.747809 -1.324425 -14.165070 -3.509302 -1.326313 -1.162573 25.219023 3.283716 0.404352 55.253359 2.680726 7.988876 -11.319810 14.348610 -5.671683 -6.043074 -2.217564 -8.576781 8.504366 5.966723 0.515118 
